<?xml version="1.0" encoding="UTF-8"?>
<svg version="1.1" xmlns="http://www.w3.org/2000/svg" width="588" height="588">
<path d="M0 0 C7.92 0 15.84 0 24 0 C24 1.32 24 2.64 24 4 C26.64 4 29.28 4 32 4 C32 6.64 32 9.28 32 12 C33.32 12 34.64 12 36 12 C36 14.64 36 17.28 36 20 C37.32 20 38.64 20 40 20 C40 23.96 40 27.92 40 32 C38.68 32 37.36 32 36 32 C36 34.64 36 37.28 36 40 C34.68 40 33.36 40 32 40 C32 41.32 32 42.64 32 44 C30.68 44 29.36 44 28 44 C28 45.32 28 46.64 28 48 C25.36 48 22.72 48 20 48 C20 90.24 20 132.48 20 176 C34.52 176 49.04 176 64 176 C64 154.88 64 133.76 64 112 C65.32 112 66.64 112 68 112 C68 110.68 68 109.36 68 108 C69.32 108 70.64 108 72 108 C72 106.68 72 105.36 72 104 C73.32 104 74.64 104 76 104 C76 102.68 76 101.36 76 100 C77.32 100 78.64 100 80 100 C80 98.68 80 97.36 80 96 C81.32 96 82.64 96 84 96 C84 88.08 84 80.16 84 72 C85.32 72 86.64 72 88 72 C88 70.68 88 69.36 88 68 C89.32 68 90.64 68 92 68 C92 66.68 92 65.36 92 64 C93.32 64 94.64 64 96 64 C96 62.68 96 61.36 96 60 C103.92 60 111.84 60 120 60 C120 61.32 120 62.64 120 64 C122.64 64 125.28 64 128 64 C128 65.32 128 66.64 128 68 C129.32 68 130.64 68 132 68 C132 70.64 132 73.28 132 76 C133.32 76 134.64 76 136 76 C136 81.28 136 86.56 136 92 C134.68 92 133.36 92 132 92 C132 94.64 132 97.28 132 100 C130.68 100 129.36 100 128 100 C128 101.32 128 102.64 128 104 C126.68 104 125.36 104 124 104 C124 105.32 124 106.64 124 108 C121.36 108 118.72 108 116 108 C116 109.32 116 110.64 116 112 C110.72 112 105.44 112 100 112 C100 110.68 100 109.36 100 108 C96.04 108 92.08 108 88 108 C88 109.32 88 110.64 88 112 C86.68 112 85.36 112 84 112 C84 113.32 84 114.64 84 116 C82.68 116 81.36 116 80 116 C80 135.8 80 155.6 80 176 C153.92 176 227.84 176 304 176 C304 185.24 304 194.48 304 204 C302.68 204 301.36 204 300 204 C300 207.96 300 211.92 300 216 C298.68 216 297.36 216 296 216 C296 217.32 296 218.64 296 220 C294.68 220 293.36 220 292 220 C292 221.32 292 222.64 292 224 C290.68 224 289.36 224 288 224 C288 226.64 288 229.28 288 232 C286.68 232 285.36 232 284 232 C284 233.32 284 234.64 284 236 C281.36 236 278.72 236 276 236 C276 237.32 276 238.64 276 240 C274.68 240 273.36 240 272 240 C272 241.32 272 242.64 272 244 C268.04 244 264.08 244 260 244 C260 258.52 260 273.04 260 288 C258.68 288 257.36 288 256 288 C256 290.64 256 293.28 256 296 C254.68 296 253.36 296 252 296 C252 298.64 252 301.28 252 304 C250.68 304 249.36 304 248 304 C248 305.32 248 306.64 248 308 C246.68 308 245.36 308 244 308 C244 310.64 244 313.28 244 316 C241.36 316 238.72 316 236 316 C236 317.32 236 318.64 236 320 C234.68 320 233.36 320 232 320 C232 321.32 232 322.64 232 324 C229.36 324 226.72 324 224 324 C224 325.32 224 326.64 224 328 C221.36 328 218.72 328 216 328 C216 329.32 216 330.64 216 332 C212.04 332 208.08 332 204 332 C204 333.32 204 334.64 204 336 C200.04 336 196.08 336 192 336 C192 341.28 192 346.56 192 352 C190.68 352 189.36 352 188 352 C188 354.64 188 357.28 188 360 C186.68 360 185.36 360 184 360 C184 362.64 184 365.28 184 368 C182.68 368 181.36 368 180 368 C180 369.32 180 370.64 180 372 C178.68 372 177.36 372 176 372 C176 374.64 176 377.28 176 380 C174.68 380 173.36 380 172 380 C172 381.32 172 382.64 172 384 C170.68 384 169.36 384 168 384 C168 385.32 168 386.64 168 388 C166.68 388 165.36 388 164 388 C164 389.32 164 390.64 164 392 C162.68 392 161.36 392 160 392 C160 393.32 160 394.64 160 396 C157.36 396 154.72 396 152 396 C152 397.32 152 398.64 152 400 C150.68 400 149.36 400 148 400 C148 401.32 148 402.64 148 404 C145.36 404 142.72 404 140 404 C140 405.32 140 406.64 140 408 C136.04 408 132.08 408 128 408 C128 409.32 128 410.64 128 412 C120.08 412 112.16 412 104 412 C104 413.32 104 414.64 104 416 C98.72 416 93.44 416 88 416 C88 414.68 88 413.36 88 412 C81.4 412 74.8 412 68 412 C68 410.68 68 409.36 68 408 C65.36 408 62.72 408 60 408 C60 406.68 60 405.36 60 404 C57.36 404 54.72 404 52 404 C52 402.68 52 401.36 52 400 C49.36 400 46.72 400 44 400 C44 398.68 44 397.36 44 396 C42.68 396 41.36 396 40 396 C40 394.68 40 393.36 40 392 C38.68 392 37.36 392 36 392 C36 390.68 36 389.36 36 388 C34.68 388 33.36 388 32 388 C32 386.68 32 385.36 32 384 C30.68 384 29.36 384 28 384 C28 382.68 28 381.36 28 380 C25.36 380 22.72 380 20 380 C20 381.32 20 382.64 20 384 C18.68 384 17.36 384 16 384 C16 385.32 16 386.64 16 388 C14.68 388 13.36 388 12 388 C12 389.32 12 390.64 12 392 C10.68 392 9.36 392 8 392 C8 393.32 8 394.64 8 396 C5.36 396 2.72 396 0 396 C0 397.32 0 398.64 0 400 C-1.32 400 -2.64 400 -4 400 C-4 401.32 -4 402.64 -4 404 C-6.64 404 -9.28 404 -12 404 C-12 405.32 -12 406.64 -12 408 C-15.96 408 -19.92 408 -24 408 C-24 409.32 -24 410.64 -24 412 C-31.92 412 -39.84 412 -48 412 C-48 413.32 -48 414.64 -48 416 C-51.96 416 -55.92 416 -60 416 C-60 414.68 -60 413.36 -60 412 C-66.6 412 -73.2 412 -80 412 C-80 410.68 -80 409.36 -80 408 C-83.96 408 -87.92 408 -92 408 C-92 406.68 -92 405.36 -92 404 C-94.64 404 -97.28 404 -100 404 C-100 402.68 -100 401.36 -100 400 C-102.64 400 -105.28 400 -108 400 C-108 398.68 -108 397.36 -108 396 C-109.32 396 -110.64 396 -112 396 C-112 394.68 -112 393.36 -112 392 C-113.32 392 -114.64 392 -116 392 C-116 390.68 -116 389.36 -116 388 C-118.64 388 -121.28 388 -124 388 C-124 385.36 -124 382.72 -124 380 C-125.32 380 -126.64 380 -128 380 C-128 378.68 -128 377.36 -128 376 C-129.32 376 -130.64 376 -132 376 C-132 374.68 -132 373.36 -132 372 C-133.32 372 -134.64 372 -136 372 C-136 369.36 -136 366.72 -136 364 C-137.32 364 -138.64 364 -140 364 C-140 361.36 -140 358.72 -140 356 C-141.32 356 -142.64 356 -144 356 C-144 353.36 -144 350.72 -144 348 C-145.32 348 -146.64 348 -148 348 C-148 345.36 -148 342.72 -148 340 C-151.96 340 -155.92 340 -160 340 C-160 341.32 -160 342.64 -160 344 C-169.24 344 -178.48 344 -188 344 C-188 342.68 -188 341.36 -188 340 C-191.96 340 -195.92 340 -200 340 C-200 338.68 -200 337.36 -200 336 C-202.64 336 -205.28 336 -208 336 C-208 334.68 -208 333.36 -208 332 C-210.64 332 -213.28 332 -216 332 C-216 330.68 -216 329.36 -216 328 C-217.32 328 -218.64 328 -220 328 C-220 326.68 -220 325.36 -220 324 C-221.32 324 -222.64 324 -224 324 C-224 322.68 -224 321.36 -224 320 C-225.32 320 -226.64 320 -228 320 C-228 318.68 -228 317.36 -228 316 C-229.32 316 -230.64 316 -232 316 C-232 313.36 -232 310.72 -232 308 C-233.32 308 -234.64 308 -236 308 C-236 305.36 -236 302.72 -236 300 C-237.32 300 -238.64 300 -240 300 C-240 294.72 -240 289.44 -240 284 C-241.32 284 -242.64 284 -244 284 C-244 276.08 -244 268.16 -244 260 C-242.68 260 -241.36 260 -240 260 C-240 254.72 -240 249.44 -240 244 C-242.64 244 -245.28 244 -248 244 C-248 242.68 -248 241.36 -248 240 C-249.32 240 -250.64 240 -252 240 C-252 238.68 -252 237.36 -252 236 C-254.64 236 -257.28 236 -260 236 C-260 234.68 -260 233.36 -260 232 C-261.32 232 -262.64 232 -264 232 C-264 229.36 -264 226.72 -264 224 C-265.32 224 -266.64 224 -268 224 C-268 222.68 -268 221.36 -268 220 C-269.32 220 -270.64 220 -272 220 C-272 217.36 -272 214.72 -272 212 C-273.32 212 -274.64 212 -276 212 C-276 209.36 -276 206.72 -276 204 C-277.32 204 -278.64 204 -280 204 C-280 194.76 -280 185.52 -280 176 C-204.76 176 -129.52 176 -52 176 C-52 157.52 -52 139.04 -52 120 C-53.32 120 -54.64 120 -56 120 C-56 118.68 -56 117.36 -56 116 C-57.32 116 -58.64 116 -60 116 C-60 114.68 -60 113.36 -60 112 C-61.32 112 -62.64 112 -64 112 C-64 110.68 -64 109.36 -64 108 C-67.96 108 -71.92 108 -76 108 C-76 109.32 -76 110.64 -76 112 C-81.28 112 -86.56 112 -92 112 C-92 110.68 -92 109.36 -92 108 C-94.64 108 -97.28 108 -100 108 C-100 106.68 -100 105.36 -100 104 C-101.32 104 -102.64 104 -104 104 C-104 101.36 -104 98.72 -104 96 C-105.32 96 -106.64 96 -108 96 C-108 89.4 -108 82.8 -108 76 C-106.68 76 -105.36 76 -104 76 C-104 73.36 -104 70.72 -104 68 C-102.68 68 -101.36 68 -100 68 C-100 66.68 -100 65.36 -100 64 C-98.68 64 -97.36 64 -96 64 C-96 62.68 -96 61.36 -96 60 C-86.76 60 -77.52 60 -68 60 C-68 61.32 -68 62.64 -68 64 C-66.68 64 -65.36 64 -64 64 C-64 65.32 -64 66.64 -64 68 C-62.68 68 -61.36 68 -60 68 C-60 69.32 -60 70.64 -60 72 C-58.68 72 -57.36 72 -56 72 C-56 79.92 -56 87.84 -56 96 C-54.68 96 -53.36 96 -52 96 C-52 97.32 -52 98.64 -52 100 C-50.68 100 -49.36 100 -48 100 C-48 101.32 -48 102.64 -48 104 C-46.68 104 -45.36 104 -44 104 C-44 105.32 -44 106.64 -44 108 C-42.68 108 -41.36 108 -40 108 C-40 109.32 -40 110.64 -40 112 C-38.68 112 -37.36 112 -36 112 C-36 133.12 -36 154.24 -36 176 C-22.8 176 -9.6 176 4 176 C4 133.76 4 91.52 4 48 C1.36 48 -1.28 48 -4 48 C-4 46.68 -4 45.36 -4 44 C-5.32 44 -6.64 44 -8 44 C-8 42.68 -8 41.36 -8 40 C-9.32 40 -10.64 40 -12 40 C-12 36.04 -12 32.08 -12 28 C-13.32 28 -14.64 28 -16 28 C-16 26.68 -16 25.36 -16 24 C-14.68 24 -13.36 24 -12 24 C-12 20.04 -12 16.08 -12 12 C-10.68 12 -9.36 12 -8 12 C-8 9.36 -8 6.72 -8 4 C-5.36 4 -2.72 4 0 4 C0 2.68 0 1.36 0 0 Z M4 16 C4 17.32 4 18.64 4 20 C2.68 20 1.36 20 0 20 C0 22.64 0 25.28 0 28 C1.32 28 2.64 28 4 28 C4 30.64 4 33.28 4 36 C9.28 36 14.56 36 20 36 C20 33.36 20 30.72 20 28 C21.32 28 22.64 28 24 28 C24 25.36 24 22.72 24 20 C22.68 20 21.36 20 20 20 C20 18.68 20 17.36 20 16 C14.72 16 9.44 16 4 16 Z M-92 76 C-92 81.28 -92 86.56 -92 92 C-90.68 92 -89.36 92 -88 92 C-88 93.32 -88 94.64 -88 96 C-84.04 96 -80.08 96 -76 96 C-76 94.68 -76 93.36 -76 92 C-74.68 92 -73.36 92 -72 92 C-72 88.04 -72 84.08 -72 80 C-73.32 80 -74.64 80 -76 80 C-76 78.68 -76 77.36 -76 76 C-81.28 76 -86.56 76 -92 76 Z M100 76 C100 81.28 100 86.56 100 92 C101.32 92 102.64 92 104 92 C104 93.32 104 94.64 104 96 C106.64 96 109.28 96 112 96 C112 94.68 112 93.36 112 92 C113.32 92 114.64 92 116 92 C116 90.68 116 89.36 116 88 C117.32 88 118.64 88 120 88 C120 85.36 120 82.72 120 80 C118.68 80 117.36 80 116 80 C116 78.68 116 77.36 116 76 C110.72 76 105.44 76 100 76 Z M-264 192 C-264 194.64 -264 197.28 -264 200 C-262.68 200 -261.36 200 -260 200 C-260 202.64 -260 205.28 -260 208 C-258.68 208 -257.36 208 -256 208 C-256 210.64 -256 213.28 -256 216 C-254.68 216 -253.36 216 -252 216 C-252 217.32 -252 218.64 -252 220 C-250.68 220 -249.36 220 -248 220 C-248 221.32 -248 222.64 -248 224 C-245.36 224 -242.72 224 -240 224 C-240 225.32 -240 226.64 -240 228 C-237.36 228 -234.72 228 -232 228 C-232 229.32 -232 230.64 -232 232 C-230.68 232 -229.36 232 -228 232 C-228 229.36 -228 226.72 -228 224 C-226.68 224 -225.36 224 -224 224 C-224 222.68 -224 221.36 -224 220 C-222.68 220 -221.36 220 -220 220 C-220 218.68 -220 217.36 -220 216 C-217.36 216 -214.72 216 -212 216 C-212 217.32 -212 218.64 -212 220 C-210.68 220 -209.36 220 -208 220 C-208 223.96 -208 227.92 -208 232 C-209.32 232 -210.64 232 -212 232 C-212 233.32 -212 234.64 -212 236 C-213.32 236 -214.64 236 -216 236 C-216 237.32 -216 238.64 -216 240 C-217.32 240 -218.64 240 -220 240 C-220 242.64 -220 245.28 -220 248 C-221.32 248 -222.64 248 -224 248 C-224 250.64 -224 253.28 -224 256 C-225.32 256 -226.64 256 -228 256 C-228 267.88 -228 279.76 -228 292 C-226.68 292 -225.36 292 -224 292 C-224 294.64 -224 297.28 -224 300 C-222.68 300 -221.36 300 -220 300 C-220 301.32 -220 302.64 -220 304 C-218.68 304 -217.36 304 -216 304 C-216 305.32 -216 306.64 -216 308 C-214.68 308 -213.36 308 -212 308 C-212 309.32 -212 310.64 -212 312 C-210.68 312 -209.36 312 -208 312 C-208 313.32 -208 314.64 -208 316 C-206.68 316 -205.36 316 -204 316 C-204 317.32 -204 318.64 -204 320 C-201.36 320 -198.72 320 -196 320 C-196 321.32 -196 322.64 -196 324 C-192.04 324 -188.08 324 -184 324 C-184 325.32 -184 326.64 -184 328 C-176.08 328 -168.16 328 -160 328 C-160 326.68 -160 325.36 -160 324 C-156.04 324 -152.08 324 -148 324 C-148 322.68 -148 321.36 -148 320 C-149.32 320 -150.64 320 -152 320 C-152 317.36 -152 314.72 -152 312 C-150.68 312 -149.36 312 -148 312 C-148 306.72 -148 301.44 -148 296 C-142.72 296 -137.44 296 -132 296 C-132 299.96 -132 303.92 -132 308 C-133.32 308 -134.64 308 -136 308 C-136 314.6 -136 321.2 -136 328 C-134.68 328 -133.36 328 -132 328 C-132 333.28 -132 338.56 -132 344 C-130.68 344 -129.36 344 -128 344 C-128 346.64 -128 349.28 -128 352 C-126.68 352 -125.36 352 -124 352 C-124 354.64 -124 357.28 -124 360 C-122.68 360 -121.36 360 -120 360 C-120 362.64 -120 365.28 -120 368 C-118.68 368 -117.36 368 -116 368 C-116 369.32 -116 370.64 -116 372 C-114.68 372 -113.36 372 -112 372 C-112 373.32 -112 374.64 -112 376 C-110.68 376 -109.36 376 -108 376 C-108 377.32 -108 378.64 -108 380 C-106.68 380 -105.36 380 -104 380 C-104 381.32 -104 382.64 -104 384 C-101.36 384 -98.72 384 -96 384 C-96 385.32 -96 386.64 -96 388 C-93.36 388 -90.72 388 -88 388 C-88 389.32 -88 390.64 -88 392 C-85.36 392 -82.72 392 -80 392 C-80 393.32 -80 394.64 -80 396 C-74.72 396 -69.44 396 -64 396 C-64 397.32 -64 398.64 -64 400 C-57.4 400 -50.8 400 -44 400 C-44 398.68 -44 397.36 -44 396 C-38.72 396 -33.44 396 -28 396 C-28 394.68 -28 393.36 -28 392 C-24.04 392 -20.08 392 -16 392 C-16 390.68 -16 389.36 -16 388 C-13.36 388 -10.72 388 -8 388 C-8 386.68 -8 385.36 -8 384 C-6.68 384 -5.36 384 -4 384 C-4 382.68 -4 381.36 -4 380 C-2.68 380 -1.36 380 0 380 C0 378.68 0 377.36 0 376 C1.32 376 2.64 376 4 376 C4 374.68 4 373.36 4 372 C5.32 372 6.64 372 8 372 C8 370.68 8 369.36 8 368 C9.32 368 10.64 368 12 368 C12 366.68 12 365.36 12 364 C13.32 364 14.64 364 16 364 C16 361.36 16 358.72 16 356 C17.32 356 18.64 356 20 356 C20 353.36 20 350.72 20 348 C21.32 348 22.64 348 24 348 C24 342.72 24 337.44 24 332 C25.32 332 26.64 332 28 332 C28 325.4 28 318.8 28 312 C33.28 312 38.56 312 44 312 C44 319.92 44 327.84 44 336 C42.68 336 41.36 336 40 336 C40 341.28 40 346.56 40 352 C38.68 352 37.36 352 36 352 C36 354.64 36 357.28 36 360 C34.68 360 33.36 360 32 360 C32 361.32 32 362.64 32 364 C33.32 364 34.64 364 36 364 C36 365.32 36 366.64 36 368 C37.32 368 38.64 368 40 368 C40 370.64 40 373.28 40 376 C42.64 376 45.28 376 48 376 C48 377.32 48 378.64 48 380 C49.32 380 50.64 380 52 380 C52 381.32 52 382.64 52 384 C53.32 384 54.64 384 56 384 C56 385.32 56 386.64 56 388 C58.64 388 61.28 388 64 388 C64 389.32 64 390.64 64 392 C66.64 392 69.28 392 72 392 C72 393.32 72 394.64 72 396 C77.28 396 82.56 396 88 396 C88 397.32 88 398.64 88 400 C94.6 400 101.2 400 108 400 C108 398.68 108 397.36 108 396 C113.28 396 118.56 396 124 396 C124 394.68 124 393.36 124 392 C127.96 392 131.92 392 136 392 C136 390.68 136 389.36 136 388 C137.32 388 138.64 388 140 388 C140 386.68 140 385.36 140 384 C142.64 384 145.28 384 148 384 C148 382.68 148 381.36 148 380 C149.32 380 150.64 380 152 380 C152 378.68 152 377.36 152 376 C153.32 376 154.64 376 156 376 C156 374.68 156 373.36 156 372 C157.32 372 158.64 372 160 372 C160 370.68 160 369.36 160 368 C161.32 368 162.64 368 164 368 C164 366.68 164 365.36 164 364 C165.32 364 166.64 364 168 364 C168 361.36 168 358.72 168 356 C169.32 356 170.64 356 172 356 C172 353.36 172 350.72 172 348 C173.32 348 174.64 348 176 348 C176 344.04 176 340.08 176 336 C177.32 336 178.64 336 180 336 C180 334.68 180 333.36 180 332 C174.72 332 169.44 332 164 332 C164 330.68 164 329.36 164 328 C161.36 328 158.72 328 156 328 C156 326.68 156 325.36 156 324 C153.36 324 150.72 324 148 324 C148 318.72 148 313.44 148 308 C151.96 308 155.92 308 160 308 C160 309.32 160 310.64 160 312 C162.64 312 165.28 312 168 312 C168 313.32 168 314.64 168 316 C170.64 316 173.28 316 176 316 C176 317.32 176 318.64 176 320 C185.24 320 194.48 320 204 320 C204 318.68 204 317.36 204 316 C207.96 316 211.92 316 216 316 C216 314.68 216 313.36 216 312 C217.32 312 218.64 312 220 312 C220 310.68 220 309.36 220 308 C222.64 308 225.28 308 228 308 C228 306.68 228 305.36 228 304 C229.32 304 230.64 304 232 304 C232 301.36 232 298.72 232 296 C233.32 296 234.64 296 236 296 C236 294.68 236 293.36 236 292 C237.32 292 238.64 292 240 292 C240 289.36 240 286.72 240 284 C241.32 284 242.64 284 244 284 C244 278.72 244 273.44 244 268 C245.32 268 246.64 268 248 268 C248 266.68 248 265.36 248 264 C246.68 264 245.36 264 244 264 C244 257.4 244 250.8 244 244 C242.68 244 241.36 244 240 244 C240 241.36 240 238.72 240 236 C238.68 236 237.36 236 236 236 C236 233.36 236 230.72 236 228 C234.68 228 233.36 228 232 228 C232 224.04 232 220.08 232 216 C235.96 216 239.92 216 244 216 C244 217.32 244 218.64 244 220 C245.32 220 246.64 220 248 220 C248 221.32 248 222.64 248 224 C249.32 224 250.64 224 252 224 C252 226.64 252 229.28 252 232 C254.64 232 257.28 232 260 232 C260 230.68 260 229.36 260 228 C262.64 228 265.28 228 268 228 C268 226.68 268 225.36 268 224 C269.32 224 270.64 224 272 224 C272 222.68 272 221.36 272 220 C273.32 220 274.64 220 276 220 C276 218.68 276 217.36 276 216 C277.32 216 278.64 216 280 216 C280 214.68 280 213.36 280 212 C281.32 212 282.64 212 284 212 C284 208.04 284 204.08 284 200 C285.32 200 286.64 200 288 200 C288 197.36 288 194.72 288 192 C105.84 192 -76.32 192 -264 192 Z " fill="#FFFFFF" transform="translate(280,172)"/>
<path d="M0 0 C26.4 0 52.8 0 80 0 C80 1.32 80 2.64 80 4 C91.88 4 103.76 4 116 4 C116 5.32 116 6.64 116 8 C117.32 8 118.64 8 120 8 C120 17.24 120 26.48 120 36 C121.32 36 122.64 36 124 36 C124 43.92 124 51.84 124 60 C126.64 60 129.28 60 132 60 C132 61.32 132 62.64 132 64 C135.96 64 139.92 64 144 64 C144 65.32 144 66.64 144 68 C146.64 68 149.28 68 152 68 C152 69.32 152 70.64 152 72 C155.96 72 159.92 72 164 72 C164 73.32 164 74.64 164 76 C166.64 76 169.28 76 172 76 C172 77.32 172 78.64 172 80 C173.32 80 174.64 80 176 80 C176 78.68 176 77.36 176 76 C178.64 76 181.28 76 184 76 C184 74.68 184 73.36 184 72 C186.64 72 189.28 72 192 72 C192 70.68 192 69.36 192 68 C193.32 68 194.64 68 196 68 C196 66.68 196 65.36 196 64 C198.64 64 201.28 64 204 64 C204 62.68 204 61.36 204 60 C205.32 60 206.64 60 208 60 C208 58.68 208 57.36 208 56 C210.64 56 213.28 56 216 56 C216 54.68 216 53.36 216 52 C219.96 52 223.92 52 228 52 C228 53.32 228 54.64 228 56 C229.32 56 230.64 56 232 56 C232 57.32 232 58.64 232 60 C233.32 60 234.64 60 236 60 C236 62.64 236 65.28 236 68 C237.32 68 238.64 68 240 68 C240 69.32 240 70.64 240 72 C241.32 72 242.64 72 244 72 C244 73.32 244 74.64 244 76 C245.32 76 246.64 76 248 76 C248 77.32 248 78.64 248 80 C249.32 80 250.64 80 252 80 C252 81.32 252 82.64 252 84 C253.32 84 254.64 84 256 84 C256 85.32 256 86.64 256 88 C257.32 88 258.64 88 260 88 C260 89.32 260 90.64 260 92 C261.32 92 262.64 92 264 92 C264 93.32 264 94.64 264 96 C265.32 96 266.64 96 268 96 C268 97.32 268 98.64 268 100 C269.32 100 270.64 100 272 100 C272 101.32 272 102.64 272 104 C273.32 104 274.64 104 276 104 C276 105.32 276 106.64 276 108 C277.32 108 278.64 108 280 108 C280 109.32 280 110.64 280 112 C281.32 112 282.64 112 284 112 C284 113.32 284 114.64 284 116 C285.32 116 286.64 116 288 116 C288 117.32 288 118.64 288 120 C289.32 120 290.64 120 292 120 C292 121.32 292 122.64 292 124 C293.32 124 294.64 124 296 124 C296 125.32 296 126.64 296 128 C297.32 128 298.64 128 300 128 C300 133.28 300 138.56 300 144 C298.68 144 297.36 144 296 144 C296 145.32 296 146.64 296 148 C294.68 148 293.36 148 292 148 C292 150.64 292 153.28 292 156 C290.68 156 289.36 156 288 156 C288 157.32 288 158.64 288 160 C286.68 160 285.36 160 284 160 C284 161.32 284 162.64 284 164 C282.68 164 281.36 164 280 164 C280 166.64 280 169.28 280 172 C278.68 172 277.36 172 276 172 C276 173.32 276 174.64 276 176 C274.68 176 273.36 176 272 176 C272 179.96 272 183.92 272 188 C273.32 188 274.64 188 276 188 C276 190.64 276 193.28 276 196 C277.32 196 278.64 196 280 196 C280 198.64 280 201.28 280 204 C281.32 204 282.64 204 284 204 C284 209.28 284 214.56 284 220 C285.32 220 286.64 220 288 220 C288 223.96 288 227.92 288 232 C295.92 232 303.84 232 312 232 C312 233.32 312 234.64 312 236 C317.28 236 322.56 236 328 236 C328 237.32 328 238.64 328 240 C333.28 240 338.56 240 344 240 C344 258.48 344 276.96 344 296 C295.16 296 246.32 296 196 296 C196 289.4 196 282.8 196 276 C194.68 276 193.36 276 192 276 C192 269.4 192 262.8 192 256 C190.68 256 189.36 256 188 256 C188 252.04 188 248.08 188 244 C186.68 244 185.36 244 184 244 C184 240.04 184 236.08 184 232 C182.68 232 181.36 232 180 232 C180 229.36 180 226.72 180 224 C178.68 224 177.36 224 176 224 C176 221.36 176 218.72 176 216 C174.68 216 173.36 216 172 216 C172 214.68 172 213.36 172 212 C170.68 212 169.36 212 168 212 C168 210.68 168 209.36 168 208 C166.68 208 165.36 208 164 208 C164 205.36 164 202.72 164 200 C162.68 200 161.36 200 160 200 C160 198.68 160 197.36 160 196 C158.68 196 157.36 196 156 196 C156 194.68 156 193.36 156 192 C154.68 192 153.36 192 152 192 C152 190.68 152 189.36 152 188 C150.68 188 149.36 188 148 188 C148 186.68 148 185.36 148 184 C146.68 184 145.36 184 144 184 C144 182.68 144 181.36 144 180 C141.36 180 138.72 180 136 180 C136 178.68 136 177.36 136 176 C134.68 176 133.36 176 132 176 C132 174.68 132 173.36 132 172 C129.36 172 126.72 172 124 172 C124 170.68 124 169.36 124 168 C122.68 168 121.36 168 120 168 C120 166.68 120 165.36 120 164 C117.36 164 114.72 164 112 164 C112 162.68 112 161.36 112 160 C108.04 160 104.08 160 100 160 C100 158.68 100 157.36 100 156 C96.04 156 92.08 156 88 156 C88 154.68 88 153.36 88 152 C81.4 152 74.8 152 68 152 C68 150.68 68 149.36 68 148 C57.44 148 46.88 148 36 148 C36 149.32 36 150.64 36 152 C29.4 152 22.8 152 16 152 C16 153.32 16 154.64 16 156 C12.04 156 8.08 156 4 156 C4 157.32 4 158.64 4 160 C0.04 160 -3.92 160 -8 160 C-8 161.32 -8 162.64 -8 164 C-10.64 164 -13.28 164 -16 164 C-16 165.32 -16 166.64 -16 168 C-17.32 168 -18.64 168 -20 168 C-20 169.32 -20 170.64 -20 172 C-22.64 172 -25.28 172 -28 172 C-28 173.32 -28 174.64 -28 176 C-29.32 176 -30.64 176 -32 176 C-32 177.32 -32 178.64 -32 180 C-34.64 180 -37.28 180 -40 180 C-40 181.32 -40 182.64 -40 184 C-41.32 184 -42.64 184 -44 184 C-44 185.32 -44 186.64 -44 188 C-45.32 188 -46.64 188 -48 188 C-48 189.32 -48 190.64 -48 192 C-49.32 192 -50.64 192 -52 192 C-52 193.32 -52 194.64 -52 196 C-53.32 196 -54.64 196 -56 196 C-56 197.32 -56 198.64 -56 200 C-57.32 200 -58.64 200 -60 200 C-60 201.32 -60 202.64 -60 204 C-61.32 204 -62.64 204 -64 204 C-64 206.64 -64 209.28 -64 212 C-65.32 212 -66.64 212 -68 212 C-68 213.32 -68 214.64 -68 216 C-69.32 216 -70.64 216 -72 216 C-72 218.64 -72 221.28 -72 224 C-73.32 224 -74.64 224 -76 224 C-76 226.64 -76 229.28 -76 232 C-77.32 232 -78.64 232 -80 232 C-80 234.64 -80 237.28 -80 240 C-81.32 240 -82.64 240 -84 240 C-84 243.96 -84 247.92 -84 252 C-85.32 252 -86.64 252 -88 252 C-88 258.6 -88 265.2 -88 272 C-89.32 272 -90.64 272 -92 272 C-92 279.92 -92 287.84 -92 296 C-140.84 296 -189.68 296 -240 296 C-240 273.56 -240 251.12 -240 228 C-237.36 228 -234.72 228 -232 228 C-232 226.68 -232 225.36 -232 224 C-222.76 224 -213.52 224 -204 224 C-204 222.68 -204 221.36 -204 220 C-197.4 220 -190.8 220 -184 220 C-184 218.68 -184 217.36 -184 216 C-182.68 216 -181.36 216 -180 216 C-180 212.04 -180 208.08 -180 204 C-178.68 204 -177.36 204 -176 204 C-176 201.36 -176 198.72 -176 196 C-174.68 196 -173.36 196 -172 196 C-172 192.04 -172 188.08 -172 184 C-170.68 184 -169.36 184 -168 184 C-168 182.68 -168 181.36 -168 180 C-166.68 180 -165.36 180 -164 180 C-164 177.36 -164 174.72 -164 172 C-162.68 172 -161.36 172 -160 172 C-160 170.68 -160 169.36 -160 168 C-161.32 168 -162.64 168 -164 168 C-164 166.68 -164 165.36 -164 164 C-165.32 164 -166.64 164 -168 164 C-168 161.36 -168 158.72 -168 156 C-169.32 156 -170.64 156 -172 156 C-172 154.68 -172 153.36 -172 152 C-173.32 152 -174.64 152 -176 152 C-176 149.36 -176 146.72 -176 144 C-177.32 144 -178.64 144 -180 144 C-180 142.68 -180 141.36 -180 140 C-181.32 140 -182.64 140 -184 140 C-184 137.36 -184 134.72 -184 132 C-185.32 132 -186.64 132 -188 132 C-188 130.68 -188 129.36 -188 128 C-189.32 128 -190.64 128 -192 128 C-192 125.36 -192 122.72 -192 120 C-190.68 120 -189.36 120 -188 120 C-188 118.68 -188 117.36 -188 116 C-186.68 116 -185.36 116 -184 116 C-184 114.68 -184 113.36 -184 112 C-182.68 112 -181.36 112 -180 112 C-180 110.68 -180 109.36 -180 108 C-178.68 108 -177.36 108 -176 108 C-176 106.68 -176 105.36 -176 104 C-174.68 104 -173.36 104 -172 104 C-172 102.68 -172 101.36 -172 100 C-170.68 100 -169.36 100 -168 100 C-168 98.68 -168 97.36 -168 96 C-166.68 96 -165.36 96 -164 96 C-164 94.68 -164 93.36 -164 92 C-162.68 92 -161.36 92 -160 92 C-160 90.68 -160 89.36 -160 88 C-158.68 88 -157.36 88 -156 88 C-156 86.68 -156 85.36 -156 84 C-154.68 84 -153.36 84 -152 84 C-152 82.68 -152 81.36 -152 80 C-150.68 80 -149.36 80 -148 80 C-148 78.68 -148 77.36 -148 76 C-146.68 76 -145.36 76 -144 76 C-144 74.68 -144 73.36 -144 72 C-142.68 72 -141.36 72 -140 72 C-140 70.68 -140 69.36 -140 68 C-138.68 68 -137.36 68 -136 68 C-136 66.68 -136 65.36 -136 64 C-134.68 64 -133.36 64 -132 64 C-132 62.68 -132 61.36 -132 60 C-129.36 60 -126.72 60 -124 60 C-124 58.68 -124 57.36 -124 56 C-122.68 56 -121.36 56 -120 56 C-120 54.68 -120 53.36 -120 52 C-118.68 52 -117.36 52 -116 52 C-116 50.68 -116 49.36 -116 48 C-114.68 48 -113.36 48 -112 48 C-112 46.68 -112 45.36 -112 44 C-108.04 44 -104.08 44 -100 44 C-100 45.32 -100 46.64 -100 48 C-98.68 48 -97.36 48 -96 48 C-96 49.32 -96 50.64 -96 52 C-93.36 52 -90.72 52 -88 52 C-88 53.32 -88 54.64 -88 56 C-86.68 56 -85.36 56 -84 56 C-84 57.32 -84 58.64 -84 60 C-82.68 60 -81.36 60 -80 60 C-80 61.32 -80 62.64 -80 64 C-77.36 64 -74.72 64 -72 64 C-72 65.32 -72 66.64 -72 68 C-70.68 68 -69.36 68 -68 68 C-68 69.32 -68 70.64 -68 72 C-66.68 72 -65.36 72 -64 72 C-64 73.32 -64 74.64 -64 76 C-62.68 76 -61.36 76 -60 76 C-60 74.68 -60 73.36 -60 72 C-57.36 72 -54.72 72 -52 72 C-52 70.68 -52 69.36 -52 68 C-49.36 68 -46.72 68 -44 68 C-44 66.68 -44 65.36 -44 64 C-40.04 64 -36.08 64 -32 64 C-32 62.68 -32 61.36 -32 60 C-28.04 60 -24.08 60 -20 60 C-20 58.68 -20 57.36 -20 56 C-17.36 56 -14.72 56 -12 56 C-12 52.04 -12 48.08 -12 44 C-10.68 44 -9.36 44 -8 44 C-8 37.4 -8 30.8 -8 24 C-6.68 24 -5.36 24 -4 24 C-4 17.4 -4 10.8 -4 4 C-2.68 4 -1.36 4 0 4 C0 2.68 0 1.36 0 0 Z M12 16 C12 18.64 12 21.28 12 24 C10.68 24 9.36 24 8 24 C8 30.6 8 37.2 8 44 C6.68 44 5.36 44 4 44 C4 50.6 4 57.2 4 64 C2.68 64 1.36 64 0 64 C0 65.32 0 66.64 0 68 C-1.32 68 -2.64 68 -4 68 C-4 69.32 -4 70.64 -4 72 C-9.28 72 -14.56 72 -20 72 C-20 73.32 -20 74.64 -20 76 C-23.96 76 -27.92 76 -32 76 C-32 77.32 -32 78.64 -32 80 C-34.64 80 -37.28 80 -40 80 C-40 81.32 -40 82.64 -40 84 C-42.64 84 -45.28 84 -48 84 C-48 85.32 -48 86.64 -48 88 C-50.64 88 -53.28 88 -56 88 C-56 89.32 -56 90.64 -56 92 C-59.96 92 -63.92 92 -68 92 C-68 90.68 -68 89.36 -68 88 C-69.32 88 -70.64 88 -72 88 C-72 86.68 -72 85.36 -72 84 C-74.64 84 -77.28 84 -80 84 C-80 82.68 -80 81.36 -80 80 C-81.32 80 -82.64 80 -84 80 C-84 78.68 -84 77.36 -84 76 C-85.32 76 -86.64 76 -88 76 C-88 74.68 -88 73.36 -88 72 C-90.64 72 -93.28 72 -96 72 C-96 70.68 -96 69.36 -96 68 C-97.32 68 -98.64 68 -100 68 C-100 66.68 -100 65.36 -100 64 C-101.32 64 -102.64 64 -104 64 C-104 62.68 -104 61.36 -104 60 C-105.32 60 -106.64 60 -108 60 C-108 61.32 -108 62.64 -108 64 C-109.32 64 -110.64 64 -112 64 C-112 65.32 -112 66.64 -112 68 C-113.32 68 -114.64 68 -116 68 C-116 69.32 -116 70.64 -116 72 C-117.32 72 -118.64 72 -120 72 C-120 73.32 -120 74.64 -120 76 C-121.32 76 -122.64 76 -124 76 C-124 77.32 -124 78.64 -124 80 C-125.32 80 -126.64 80 -128 80 C-128 81.32 -128 82.64 -128 84 C-129.32 84 -130.64 84 -132 84 C-132 85.32 -132 86.64 -132 88 C-133.32 88 -134.64 88 -136 88 C-136 89.32 -136 90.64 -136 92 C-137.32 92 -138.64 92 -140 92 C-140 93.32 -140 94.64 -140 96 C-141.32 96 -142.64 96 -144 96 C-144 97.32 -144 98.64 -144 100 C-145.32 100 -146.64 100 -148 100 C-148 101.32 -148 102.64 -148 104 C-149.32 104 -150.64 104 -152 104 C-152 105.32 -152 106.64 -152 108 C-153.32 108 -154.64 108 -156 108 C-156 109.32 -156 110.64 -156 112 C-157.32 112 -158.64 112 -160 112 C-160 113.32 -160 114.64 -160 116 C-161.32 116 -162.64 116 -164 116 C-164 117.32 -164 118.64 -164 120 C-165.32 120 -166.64 120 -168 120 C-168 121.32 -168 122.64 -168 124 C-169.32 124 -170.64 124 -172 124 C-172 125.32 -172 126.64 -172 128 C-170.68 128 -169.36 128 -168 128 C-168 130.64 -168 133.28 -168 136 C-166.68 136 -165.36 136 -164 136 C-164 137.32 -164 138.64 -164 140 C-162.68 140 -161.36 140 -160 140 C-160 142.64 -160 145.28 -160 148 C-158.68 148 -157.36 148 -156 148 C-156 149.32 -156 150.64 -156 152 C-154.68 152 -153.36 152 -152 152 C-152 154.64 -152 157.28 -152 160 C-150.68 160 -149.36 160 -148 160 C-148 161.32 -148 162.64 -148 164 C-146.68 164 -145.36 164 -144 164 C-144 167.96 -144 171.92 -144 176 C-145.32 176 -146.64 176 -148 176 C-148 178.64 -148 181.28 -148 184 C-149.32 184 -150.64 184 -152 184 C-152 186.64 -152 189.28 -152 192 C-153.32 192 -154.64 192 -156 192 C-156 194.64 -156 197.28 -156 200 C-157.32 200 -158.64 200 -160 200 C-160 202.64 -160 205.28 -160 208 C-161.32 208 -162.64 208 -164 208 C-164 211.96 -164 215.92 -164 220 C-165.32 220 -166.64 220 -168 220 C-168 222.64 -168 225.28 -168 228 C-169.32 228 -170.64 228 -172 228 C-172 229.32 -172 230.64 -172 232 C-174.64 232 -177.28 232 -180 232 C-180 233.32 -180 234.64 -180 236 C-189.24 236 -198.48 236 -208 236 C-208 237.32 -208 238.64 -208 240 C-213.28 240 -218.56 240 -224 240 C-224 253.2 -224 266.4 -224 280 C-185.72 280 -147.44 280 -108 280 C-108 278.68 -108 277.36 -108 276 C-106.68 276 -105.36 276 -104 276 C-104 268.08 -104 260.16 -104 252 C-102.68 252 -101.36 252 -100 252 C-100 248.04 -100 244.08 -100 240 C-98.68 240 -97.36 240 -96 240 C-96 237.36 -96 234.72 -96 232 C-94.68 232 -93.36 232 -92 232 C-92 228.04 -92 224.08 -92 220 C-90.68 220 -89.36 220 -88 220 C-88 217.36 -88 214.72 -88 212 C-86.68 212 -85.36 212 -84 212 C-84 210.68 -84 209.36 -84 208 C-82.68 208 -81.36 208 -80 208 C-80 205.36 -80 202.72 -80 200 C-78.68 200 -77.36 200 -76 200 C-76 198.68 -76 197.36 -76 196 C-74.68 196 -73.36 196 -72 196 C-72 194.68 -72 193.36 -72 192 C-70.68 192 -69.36 192 -68 192 C-68 190.68 -68 189.36 -68 188 C-66.68 188 -65.36 188 -64 188 C-64 186.68 -64 185.36 -64 184 C-62.68 184 -61.36 184 -60 184 C-60 182.68 -60 181.36 -60 180 C-58.68 180 -57.36 180 -56 180 C-56 178.68 -56 177.36 -56 176 C-54.68 176 -53.36 176 -52 176 C-52 174.68 -52 173.36 -52 172 C-50.68 172 -49.36 172 -48 172 C-48 170.68 -48 169.36 -48 168 C-46.68 168 -45.36 168 -44 168 C-44 166.68 -44 165.36 -44 164 C-41.36 164 -38.72 164 -36 164 C-36 162.68 -36 161.36 -36 160 C-34.68 160 -33.36 160 -32 160 C-32 158.68 -32 157.36 -32 156 C-29.36 156 -26.72 156 -24 156 C-24 154.68 -24 153.36 -24 152 C-21.36 152 -18.72 152 -16 152 C-16 150.68 -16 149.36 -16 148 C-13.36 148 -10.72 148 -8 148 C-8 146.68 -8 145.36 -8 144 C-4.04 144 -0.08 144 4 144 C4 142.68 4 141.36 4 140 C9.28 140 14.56 140 20 140 C20 138.68 20 137.36 20 136 C41.12 136 62.24 136 84 136 C84 137.32 84 138.64 84 140 C89.28 140 94.56 140 100 140 C100 141.32 100 142.64 100 144 C103.96 144 107.92 144 112 144 C112 145.32 112 146.64 112 148 C114.64 148 117.28 148 120 148 C120 149.32 120 150.64 120 152 C122.64 152 125.28 152 128 152 C128 153.32 128 154.64 128 156 C130.64 156 133.28 156 136 156 C136 157.32 136 158.64 136 160 C137.32 160 138.64 160 140 160 C140 161.32 140 162.64 140 164 C142.64 164 145.28 164 148 164 C148 165.32 148 166.64 148 168 C149.32 168 150.64 168 152 168 C152 169.32 152 170.64 152 172 C153.32 172 154.64 172 156 172 C156 173.32 156 174.64 156 176 C157.32 176 158.64 176 160 176 C160 177.32 160 178.64 160 180 C161.32 180 162.64 180 164 180 C164 181.32 164 182.64 164 184 C165.32 184 166.64 184 168 184 C168 185.32 168 186.64 168 188 C169.32 188 170.64 188 172 188 C172 189.32 172 190.64 172 192 C173.32 192 174.64 192 176 192 C176 193.32 176 194.64 176 196 C177.32 196 178.64 196 180 196 C180 197.32 180 198.64 180 200 C181.32 200 182.64 200 184 200 C184 202.64 184 205.28 184 208 C185.32 208 186.64 208 188 208 C188 210.64 188 213.28 188 216 C189.32 216 190.64 216 192 216 C192 217.32 192 218.64 192 220 C193.32 220 194.64 220 196 220 C196 222.64 196 225.28 196 228 C197.32 228 198.64 228 200 228 C200 231.96 200 235.92 200 240 C201.32 240 202.64 240 204 240 C204 243.96 204 247.92 204 252 C205.32 252 206.64 252 208 252 C208 259.92 208 267.84 208 276 C209.32 276 210.64 276 212 276 C212 277.32 212 278.64 212 280 C250.28 280 288.56 280 328 280 C328 270.76 328 261.52 328 252 C321.4 252 314.8 252 308 252 C308 250.68 308 249.36 308 248 C301.4 248 294.8 248 288 248 C288 246.68 288 245.36 288 244 C284.04 244 280.08 244 276 244 C276 240.04 276 236.08 276 232 C274.68 232 273.36 232 272 232 C272 228.04 272 224.08 272 220 C270.68 220 269.36 220 268 220 C268 216.04 268 212.08 268 208 C266.68 208 265.36 208 264 208 C264 205.36 264 202.72 264 200 C262.68 200 261.36 200 260 200 C260 197.36 260 194.72 260 192 C258.68 192 257.36 192 256 192 C256 189.36 256 186.72 256 184 C254.68 184 253.36 184 252 184 C252 181.36 252 178.72 252 176 C253.32 176 254.64 176 256 176 C256 174.68 256 173.36 256 172 C257.32 172 258.64 172 260 172 C260 169.36 260 166.72 260 164 C261.32 164 262.64 164 264 164 C264 162.68 264 161.36 264 160 C265.32 160 266.64 160 268 160 C268 158.68 268 157.36 268 156 C269.32 156 270.64 156 272 156 C272 153.36 272 150.72 272 148 C273.32 148 274.64 148 276 148 C276 146.68 276 145.36 276 144 C277.32 144 278.64 144 280 144 C280 142.68 280 141.36 280 140 C281.32 140 282.64 140 284 140 C284 138.68 284 137.36 284 136 C282.68 136 281.36 136 280 136 C280 134.68 280 133.36 280 132 C278.68 132 277.36 132 276 132 C276 130.68 276 129.36 276 128 C274.68 128 273.36 128 272 128 C272 126.68 272 125.36 272 124 C270.68 124 269.36 124 268 124 C268 122.68 268 121.36 268 120 C266.68 120 265.36 120 264 120 C264 118.68 264 117.36 264 116 C262.68 116 261.36 116 260 116 C260 114.68 260 113.36 260 112 C258.68 112 257.36 112 256 112 C256 110.68 256 109.36 256 108 C254.68 108 253.36 108 252 108 C252 105.36 252 102.72 252 100 C250.68 100 249.36 100 248 100 C248 98.68 248 97.36 248 96 C246.68 96 245.36 96 244 96 C244 94.68 244 93.36 244 92 C242.68 92 241.36 92 240 92 C240 90.68 240 89.36 240 88 C238.68 88 237.36 88 236 88 C236 86.68 236 85.36 236 84 C234.68 84 233.36 84 232 84 C232 82.68 232 81.36 232 80 C230.68 80 229.36 80 228 80 C228 78.68 228 77.36 228 76 C226.68 76 225.36 76 224 76 C224 74.68 224 73.36 224 72 C220.04 72 216.08 72 212 72 C212 73.32 212 74.64 212 76 C210.68 76 209.36 76 208 76 C208 77.32 208 78.64 208 80 C205.36 80 202.72 80 200 80 C200 81.32 200 82.64 200 84 C198.68 84 197.36 84 196 84 C196 85.32 196 86.64 196 88 C193.36 88 190.72 88 188 88 C188 89.32 188 90.64 188 92 C186.68 92 185.36 92 184 92 C184 93.32 184 94.64 184 96 C177.4 96 170.8 96 164 96 C164 94.68 164 93.36 164 92 C162.68 92 161.36 92 160 92 C160 90.68 160 89.36 160 88 C157.36 88 154.72 88 152 88 C152 86.68 152 85.36 152 84 C148.04 84 144.08 84 140 84 C140 82.68 140 81.36 140 80 C137.36 80 134.72 80 132 80 C132 78.68 132 77.36 132 76 C128.04 76 124.08 76 120 76 C120 74.68 120 73.36 120 72 C117.36 72 114.72 72 112 72 C112 66.72 112 61.44 112 56 C110.68 56 109.36 56 108 56 C108 48.08 108 40.16 108 32 C106.68 32 105.36 32 104 32 C104 28.04 104 24.08 104 20 C100.04 20 96.08 20 92 20 C92 18.68 92 17.36 92 16 C65.6 16 39.2 16 12 16 Z " fill="#FFFFFF" transform="translate(240,0)"/>
<path d="M0 0 C6.6 0 13.2 0 20 0 C20 1.32 20 2.64 20 4 C25.28 4 30.56 4 36 4 C36 5.32 36 6.64 36 8 C38.64 8 41.28 8 44 8 C44 9.32 44 10.64 44 12 C45.32 12 46.64 12 48 12 C48 13.32 48 14.64 48 16 C49.32 16 50.64 16 52 16 C52 17.32 52 18.64 52 20 C53.32 20 54.64 20 56 20 C56 21.32 56 22.64 56 24 C57.32 24 58.64 24 60 24 C60 25.32 60 26.64 60 28 C61.32 28 62.64 28 64 28 C64 30.64 64 33.28 64 36 C65.32 36 66.64 36 68 36 C68 41.28 68 46.56 68 52 C69.32 52 70.64 52 72 52 C72 54.64 72 57.28 72 60 C70.68 60 69.36 60 68 60 C68 61.32 68 62.64 68 64 C65.36 64 62.72 64 60 64 C60 62.68 60 61.36 60 60 C58.68 60 57.36 60 56 60 C56 56.04 56 52.08 56 48 C54.68 48 53.36 48 52 48 C52 45.36 52 42.72 52 40 C50.68 40 49.36 40 48 40 C48 37.36 48 34.72 48 32 C46.68 32 45.36 32 44 32 C44 30.68 44 29.36 44 28 C41.36 28 38.72 28 36 28 C36 26.68 36 25.36 36 24 C34.68 24 33.36 24 32 24 C32 22.68 32 21.36 32 20 C28.04 20 24.08 20 20 20 C20 18.68 20 17.36 20 16 C13.4 16 6.8 16 0 16 C0 17.32 0 18.64 0 20 C-3.96 20 -7.92 20 -12 20 C-12 21.32 -12 22.64 -12 24 C-13.32 24 -14.64 24 -16 24 C-16 25.32 -16 26.64 -16 28 C-17.32 28 -18.64 28 -20 28 C-20 29.32 -20 30.64 -20 32 C-21.32 32 -22.64 32 -24 32 C-24 33.32 -24 34.64 -24 36 C-25.32 36 -26.64 36 -28 36 C-28 37.32 -28 38.64 -28 40 C-29.32 40 -30.64 40 -32 40 C-32 43.96 -32 47.92 -32 52 C-33.32 52 -34.64 52 -36 52 C-36 59.92 -36 67.84 -36 76 C-41.28 76 -46.56 76 -52 76 C-52 66.76 -52 57.52 -52 48 C-50.68 48 -49.36 48 -48 48 C-48 44.04 -48 40.08 -48 36 C-46.68 36 -45.36 36 -44 36 C-44 33.36 -44 30.72 -44 28 C-42.68 28 -41.36 28 -40 28 C-40 26.68 -40 25.36 -40 24 C-38.68 24 -37.36 24 -36 24 C-36 22.68 -36 21.36 -36 20 C-34.68 20 -33.36 20 -32 20 C-32 18.68 -32 17.36 -32 16 C-30.68 16 -29.36 16 -28 16 C-28 14.68 -28 13.36 -28 12 C-26.68 12 -25.36 12 -24 12 C-24 10.68 -24 9.36 -24 8 C-21.36 8 -18.72 8 -16 8 C-16 6.68 -16 5.36 -16 4 C-10.72 4 -5.44 4 0 4 C0 2.68 0 1.36 0 0 Z " fill="#FFFFFF" transform="translate(416,404)"/>
<path d="M0 0 C6.6 0 13.2 0 20 0 C20 1.32 20 2.64 20 4 C23.96 4 27.92 4 32 4 C32 5.32 32 6.64 32 8 C34.64 8 37.28 8 40 8 C40 9.32 40 10.64 40 12 C41.32 12 42.64 12 44 12 C44 13.32 44 14.64 44 16 C45.32 16 46.64 16 48 16 C48 17.32 48 18.64 48 20 C49.32 20 50.64 20 52 20 C52 22.64 52 25.28 52 28 C53.32 28 54.64 28 56 28 C56 30.64 56 33.28 56 36 C57.32 36 58.64 36 60 36 C60 46.56 60 57.12 60 68 C58.68 68 57.36 68 56 68 C56 69.32 56 70.64 56 72 C52.04 72 48.08 72 44 72 C44 60.12 44 48.24 44 36 C42.68 36 41.36 36 40 36 C40 34.68 40 33.36 40 32 C38.68 32 37.36 32 36 32 C36 29.36 36 26.72 36 24 C33.36 24 30.72 24 28 24 C28 22.68 28 21.36 28 20 C26.68 20 25.36 20 24 20 C24 18.68 24 17.36 24 16 C14.76 16 5.52 16 -4 16 C-4 17.32 -4 18.64 -4 20 C-6.64 20 -9.28 20 -12 20 C-12 21.32 -12 22.64 -12 24 C-13.32 24 -14.64 24 -16 24 C-16 25.32 -16 26.64 -16 28 C-17.32 28 -18.64 28 -20 28 C-20 30.64 -20 33.28 -20 36 C-21.32 36 -22.64 36 -24 36 C-24 37.32 -24 38.64 -24 40 C-25.32 40 -26.64 40 -28 40 C-28 41.32 -28 42.64 -28 44 C-30.64 44 -33.28 44 -36 44 C-36 42.68 -36 41.36 -36 40 C-37.32 40 -38.64 40 -40 40 C-40 37.36 -40 34.72 -40 32 C-38.68 32 -37.36 32 -36 32 C-36 29.36 -36 26.72 -36 24 C-34.68 24 -33.36 24 -32 24 C-32 22.68 -32 21.36 -32 20 C-30.68 20 -29.36 20 -28 20 C-28 18.68 -28 17.36 -28 16 C-26.68 16 -25.36 16 -24 16 C-24 14.68 -24 13.36 -24 12 C-22.68 12 -21.36 12 -20 12 C-20 10.68 -20 9.36 -20 8 C-17.36 8 -14.72 8 -12 8 C-12 6.68 -12 5.36 -12 4 C-8.04 4 -4.08 4 0 4 C0 2.68 0 1.36 0 0 Z " fill="#FFFFFF" transform="translate(276,376)"/>
<path d="M0 0 C3.96 0 7.92 0 12 0 C12 1.32 12 2.64 12 4 C13.32 4 14.64 4 16 4 C16 7.96 16 11.92 16 16 C12.04 16 8.08 16 4 16 C4 17.32 4 18.64 4 20 C0.04 20 -3.92 20 -8 20 C-8 21.32 -8 22.64 -8 24 C-9.32 24 -10.64 24 -12 24 C-12 25.32 -12 26.64 -12 28 C-13.32 28 -14.64 28 -16 28 C-16 30.64 -16 33.28 -16 36 C-17.32 36 -18.64 36 -20 36 C-20 41.28 -20 46.56 -20 52 C-21.32 52 -22.64 52 -24 52 C-24 53.32 -24 54.64 -24 56 C-26.64 56 -29.28 56 -32 56 C-32 54.68 -32 53.36 -32 52 C-33.32 52 -34.64 52 -36 52 C-36 46.72 -36 41.44 -36 36 C-34.68 36 -33.36 36 -32 36 C-32 32.04 -32 28.08 -32 24 C-30.68 24 -29.36 24 -28 24 C-28 22.68 -28 21.36 -28 20 C-26.68 20 -25.36 20 -24 20 C-24 17.36 -24 14.72 -24 12 C-21.36 12 -18.72 12 -16 12 C-16 10.68 -16 9.36 -16 8 C-14.68 8 -13.36 8 -12 8 C-12 6.68 -12 5.36 -12 4 C-8.04 4 -4.08 4 0 4 C0 2.68 0 1.36 0 0 Z " fill="#FFFFFF" transform="translate(256,448)"/>
<path d="M0 0 C1.32 0 2.64 0 4 0 C4 1.32 4 2.64 4 4 C9.28 4 14.56 4 20 4 C20 5.32 20 6.64 20 8 C22.64 8 25.28 8 28 8 C28 9.32 28 10.64 28 12 C29.32 12 30.64 12 32 12 C32 13.32 32 14.64 32 16 C33.32 16 34.64 16 36 16 C36 17.32 36 18.64 36 20 C37.32 20 38.64 20 40 20 C40 22.64 40 25.28 40 28 C41.32 28 42.64 28 44 28 C44 35.92 44 43.84 44 52 C40.04 52 36.08 52 32 52 C32 48.04 32 44.08 32 40 C30.68 40 29.36 40 28 40 C28 37.36 28 34.72 28 32 C26.68 32 25.36 32 24 32 C24 30.68 24 29.36 24 28 C22.68 28 21.36 28 20 28 C20 26.68 20 25.36 20 24 C18.68 24 17.36 24 16 24 C16 22.68 16 21.36 16 20 C13.36 20 10.72 20 8 20 C8 18.68 8 17.36 8 16 C4.04 16 0.08 16 -4 16 C-4 12.04 -4 8.08 -4 4 C-2.68 4 -1.36 4 0 4 C0 2.68 0 1.36 0 0 Z " fill="#FFFFFF" transform="translate(144,400)"/>
</svg>
